<svg width="351" height="300" viewBox="0 0 351 300" fill="none" xmlns="http://www.w3.org/2000/svg">
<path fill-rule="evenodd" clip-rule="evenodd" d="M320.395 0H334.255C339.746 0.455221 345.153 1.36566 350.602 2.27611C336.529 23.506 322.498 44.7358 308.295 65.8829C317.349 49.7846 326.96 34.0174 336.142 18.0019C315.804 16.1396 294.565 20.4022 277.659 31.7827C268.563 37.8247 262.428 46.9291 256.334 55.6197C239.343 80.8638 224.454 107.35 207.892 132.842C196.049 151.133 183.777 169.301 168.674 185.275C161.166 192.848 152.97 200.504 142.544 204.063C133.404 206.629 123.836 206.588 114.438 207.622C123.535 205.967 133.318 206.381 141.686 202.077C154.6 195 163.868 183.33 172.621 172.032C203.815 129.655 224.84 81.3605 252.73 37.0384C219.777 15.1051 177.385 6.95248 138.339 15.6844C105.943 22.6369 76.6803 41.0526 56.0416 66.007C45.5721 64.7655 34.9311 66.1311 25.191 69.897C38.4495 50.8606 55.9129 34.514 76.5087 22.9266C104.484 6.95248 137.823 0 170.219 3.14516C200.512 5.87649 229.732 17.7536 253.288 36.2935C266.847 13.5325 294.222 2.15195 320.395 0Z" fill="#6366F1"/>
<path fill-rule="evenodd" clip-rule="evenodd" d="M11.62 93.5581C0.120809 120.375 -3.05435 150.502 3.03852 178.974C8.87393 208.067 24.2349 235.173 45.8603 256.155C86.1079 297.041 152.314 310.823 206.807 291.165C233.238 281.564 257.824 266.045 275.244 244.401C248.384 256.113 218.006 259.465 188.914 255.12C136.353 247.299 86.2366 217.13 60.4918 171.608C49.8936 152.323 41.5266 129.396 48.778 107.67C52.7255 97.1998 58.0461 84.9912 70.1034 81.2671C59.5479 77.4593 48.1773 74.7695 36.8497 76.4666C26.3373 77.9146 16.2111 84.1223 11.62 93.5581Z" fill="#6366F1"/>
<path fill-rule="evenodd" clip-rule="evenodd" d="M305.818 100.604C297.151 101.597 288.183 103.625 281.189 108.881C269.175 117.571 259.392 128.662 249.867 139.753C234.163 158.706 217.6 176.957 201.123 195.29C193.271 203.774 184.475 212.216 173.019 215.94C158.13 220.699 142.04 220.451 126.765 217.554C136.677 223.721 146.588 230.011 157.358 234.77C176.666 237.129 196.146 231.335 212.279 221.279C237.08 206.464 255.23 183.454 280.46 169.218C288.698 164.045 297.709 159.7 307.578 158.459C322.595 140.291 336.84 121.585 351 102.839C336.111 100.48 320.879 99.0311 305.818 100.604Z" fill="#6366F1"/>
<path fill-rule="evenodd" clip-rule="evenodd" d="M307.807 158.505C322.438 156.353 337.456 159.374 350.843 165.168C334.152 186.605 317.333 208.083 297.981 227.409C281.933 243.756 257.776 249.549 235.164 250.377C208.562 250.998 181.616 245.866 157.545 234.817C176.852 237.176 196.333 231.382 212.466 221.325C237.267 206.51 255.417 183.501 280.646 169.265C288.927 164.092 297.938 159.705 307.807 158.505Z" fill="#A5B4FC"/>
</svg>
